<?xml version="1.0" standalone="no"?>
<!DOCTYPE svg PUBLIC "-//W3C//DTD SVG 20010904//EN"
 "http://www.w3.org/TR/2001/REC-SVG-20010904/DTD/svg10.dtd">
<svg version="1.0" xmlns="http://www.w3.org/2000/svg"
 width="256.000000pt" height="256.000000pt" viewBox="0 0 256.000000 256.000000"
 preserveAspectRatio="xMidYMid meet">
<metadata>
Created by potrace 1.13, written by Peter Selinger 2001-2015
</metadata>
<g transform="translate(0.000000,256.000000) scale(0.100000,-0.100000)"
fill="#000000" stroke="none">
<path d="M1973 2536 c-35 -7 -65 -15 -69 -18 -7 -8 159 -974 170 -986 7 -7
206 30 206 38 0 21 -155 910 -167 958 -6 26 -39 28 -140 8z"/>
<path d="M1372 2284 c-50 -34 -79 -61 -75 -68 14 -25 382 -569 466 -689 59
-86 94 -127 103 -123 20 8 164 106 164 111 0 3 -64 99 -141 213 -284 416 -421
612 -428 612 -4 0 -44 -25 -89 -56z"/>
<path d="M898 1787 c-27 -46 -48 -86 -48 -89 0 -10 105 -74 494 -304 198 -117
363 -211 367 -208 11 7 99 159 99 172 0 14 -833 512 -856 512 -5 0 -30 -37
-56 -83z"/>
<path d="M701 1312 c-11 -37 -23 -84 -26 -104 -7 -36 -6 -37 32 -48 130 -37
864 -232 894 -236 l35 -6 22 74 c35 122 36 125 15 132 -40 12 -658 178 -800
215 l-153 39 -19 -66z"/>
<path d="M280 530 l0 -520 828 0 829 0 6 227 c4 124 7 358 7 520 l0 293 -90 0
-90 0 0 -435 0 -435 -660 0 -660 0 0 435 0 435 -85 0 -85 0 0 -520z"/>
<path d="M616 853 c-4 -43 -9 -90 -11 -105 -4 -22 0 -29 18 -33 31 -7 893 -85
943 -85 l41 0 7 61 c10 101 8 149 -8 149 -7 0 -224 20 -482 45 -257 25 -476
45 -485 45 -14 0 -18 -13 -23 -77z"/>
<path d="M590 455 l0 -105 505 0 505 0 0 105 0 105 -505 0 -505 0 0 -105z"/>
</g>
</svg>
